<?xml version="1.0" encoding="UTF-8"?>
<svg id="Layer_2" data-name="Layer 2" xmlns="http://www.w3.org/2000/svg" viewBox="0 0 307.2 241.16">
  <defs>
    <style>
      .cls-1 {
        font-family: HelveticaNowText-Bold, 'Helvetica Now Text ';
        font-size: 164.25px;
        font-weight: 700;
      }

      .cls-1, .cls-2 {
        fill: #fff;
      }

      .cls-3 {
        letter-spacing: -.17em;
      }

      .cls-2 {
        stroke-width: 0px;
      }

      .cls-4 {
        letter-spacing: -.03em;
      }
    </style>
  </defs>
  <g id="Layer_1-2" data-name="Layer 1">
    <g>
      <path class="cls-2" d="M0,69.79h27.85v11.99h.34c2.59-4.39,6.08-7.91,10.47-10.55,4.39-2.65,9.28-3.97,14.69-3.97s10.55,1.04,15.11,3.12c4.56,2.08,8.02,5.77,10.38,11.06,3.49-4.72,7.43-8.27,11.82-10.63,4.39-2.36,9.56-3.54,15.53-3.54,6.98,0,12.52,1.18,16.63,3.54,4.11,2.36,7.2,5.4,9.28,9.12,2.08,3.71,3.43,7.79,4.05,12.24.62,4.45.93,8.75.93,12.92v52.33h-28.7v-51.48c0-4.73-1.07-8.41-3.21-11.06-2.14-2.65-5.07-3.97-8.78-3.97-3.04,0-5.46.57-7.26,1.69-1.8,1.13-3.18,2.73-4.14,4.81-.96,2.08-1.55,4.59-1.77,7.51s-.34,6.13-.34,9.62v42.88h-28.7v-49.8c0-5.18-.82-9.26-2.45-12.24-1.63-2.98-4.42-4.47-8.36-4.47-5.18,0-8.92,1.75-11.22,5.23-2.31,3.49-3.46,9.68-3.46,18.57v42.71H0v-87.61Z"/>
      <path class="cls-2" d="M145.53,36.88v21.95h28.7v-21.95h-28.7ZM166.12,77.91c2.32-3.12,5.03-5.84,8.11-8.05v-.05h-28.7v87.6h28.7v-.86c-3.12-2.42-5.84-5.34-8.11-8.56-3.52-4.98-6.09-10.72-7.75-17.07-1.66-6.19-2.47-12.69-2.47-19.28,0-6.19.86-12.18,2.47-17.92,1.71-5.84,4.28-11.18,7.75-15.81Z"/>
      <text class="cls-1" transform="translate(177.58 170.55) rotate(-20.9)"><tspan class="cls-3" x="0" y="0">e</tspan><tspan class="cls-4" x="67.18" y="18.1">.</tspan></text>
    </g>
  </g>
</svg>