<?xml version="1.0" encoding="UTF-8"?>
<svg id="Layer_2" data-name="Layer 2" xmlns="http://www.w3.org/2000/svg" viewBox="0 0 482.49 123.13">
  <defs>
    <style>
      .cls-1 {
        fill: #fff;
        stroke-width: 0px;
      }
    </style>
  </defs>
  <g id="Layer_1-2" data-name="Layer 1">
    <g>
      <g>
        <path class="cls-1" d="M0,25.4h21.5v9.25h.26c2-3.39,4.69-6.1,8.08-8.14,3.39-2.04,7.17-3.06,11.34-3.06s8.14.8,11.66,2.41c3.52,1.61,6.19,4.45,8.01,8.54,2.69-3.65,5.73-6.38,9.12-8.21,3.39-1.83,7.38-2.74,11.99-2.74,5.39,0,9.66.91,12.83,2.74,3.17,1.83,5.56,4.17,7.17,7.04s2.65,6.02,3.13,9.45c.48,3.43.72,6.76.72,9.97v40.39h-22.15v-39.74c0-3.65-.83-6.49-2.47-8.54-1.65-2.04-3.91-3.06-6.78-3.06-2.35,0-4.21.44-5.6,1.3-1.39.87-2.46,2.11-3.19,3.72-.74,1.61-1.19,3.54-1.37,5.8s-.26,4.73-.26,7.43v33.1h-22.15v-38.44c0-4-.63-7.15-1.89-9.45-1.26-2.3-3.41-3.45-6.45-3.45-4,0-6.88,1.35-8.66,4.04-1.78,2.69-2.67,7.47-2.67,14.33v32.97H0V25.4Z"/>
        <path class="cls-1" d="M112.34,0v16.94h22.15V0h-22.15ZM128.24,31.67c1.79-2.41,3.89-4.51,6.26-6.22v-.04h-22.15v67.62h22.15v-.66c-2.41-1.87-4.51-4.12-6.26-6.61-2.72-3.85-4.7-8.28-5.98-13.17-1.28-4.78-1.9-9.79-1.9-14.88,0-4.78.66-9.4,1.9-13.83,1.32-4.51,3.3-8.63,5.98-12.2Z"/>
        <path class="cls-1" d="M176.6,0v32.72h-.23c-4.62-6.18-11.04-9.29-19.31-9.29-4.78,0-8.94.97-12.51,2.88-2.1,1.13-4.04,2.53-5.75,4.2-1.13,1.01-2.22,2.22-3.15,3.5-2.41,3.23-4.2,6.88-5.36,10.96-1.17,4.08-1.75,8.32-1.75,12.75,0,4.78.58,9.4,1.75,13.87,1.17,4.51,2.99,8.47,5.4,11.93.93,1.32,1.98,2.56,3.11,3.65,1.83,1.87,3.93,3.42,6.3,4.7,3.81,2.06,8.39,3.11,13.68,3.11,8.01,0,14.18-3.26,18.61-9.75h.27v7.81h21.1V0h-22.15ZM176.88,65.75c-.35,2.18-1.01,4.2-2.02,6.02-1.01,1.83-2.33,3.34-4.04,4.51-1.71,1.17-3.89,1.75-6.57,1.75-2.53,0-4.66-.58-6.41-1.75-1.71-1.17-3.11-2.68-4.16-4.55-1.05-1.87-1.79-3.96-2.29-6.26-.47-2.29-.7-4.62-.7-7,0-2.14.23-4.31.7-6.45.51-2.1,1.24-4.04,2.29-5.79,1.05-1.71,2.45-3.15,4.16-4.24,1.75-1.09,3.89-1.63,6.41-1.63s4.47.54,6.1,1.55c1.67,1.05,2.99,2.45,4.04,4.2,1.05,1.75,1.83,3.73,2.29,5.98.47,2.25.7,4.62.7,7.03,0,2.18-.16,4.35-.51,6.61Z"/>
      </g>
      <g>
        <path class="cls-1" d="M279.22,64.23h-50.43c.17,7.3,2.04,12.88,5.6,16.75,3.56,3.87,8.47,5.8,14.73,5.8,9.29,0,15.51-4.47,18.63-13.42l10.95,1.3c-2.09,6.95-5.76,12.34-11.01,16.16s-11.58,5.73-18.96,5.73c-9.99,0-17.77-3.3-23.33-9.9-5.73-6.52-8.6-15.03-8.6-25.54s2.82-18.98,8.47-25.41c5.56-6.34,13.29-9.51,23.2-9.51s16.96,3,22.48,8.99c5.52,6,8.28,14.2,8.28,24.63v4.43ZM248.6,35.96c-5.39,0-9.86,1.65-13.42,4.95-3.48,3.39-5.56,8.3-6.26,14.72h39.09c-.78-6.25-2.82-11.12-6.12-14.59-3.39-3.39-7.82-5.08-13.29-5.08Z"/>
        <path class="cls-1" d="M334.34,2.21h11.99v92.78h-10.43v-10.69c-2.08,3.74-5.04,6.69-8.86,8.86-3.82,2.17-8.08,3.26-12.77,3.26-8.95,0-16.07-3.39-21.37-10.16-5.3-6.6-7.95-15.25-7.95-25.93,0-10.08,2.69-18.29,8.08-24.63,5.39-6.25,12.38-9.38,20.98-9.38s15.64,3.17,20.33,9.51V2.21ZM315.45,86.13c5.73,0,10.42-2.3,14.07-6.91,3.65-4.6,5.47-10.82,5.47-18.63s-1.74-13.55-5.21-17.72c-3.48-4.17-8.17-6.25-14.07-6.25s-10.62,2.06-13.88,6.19c-3.26,4.13-4.89,9.97-4.89,17.53s1.65,14.16,4.95,18.76c3.3,4.69,7.82,7.04,13.55,7.04Z"/>
        <path class="cls-1" d="M403.01,27.75h11.21v65.03c0,20.24-10.51,30.36-31.54,30.36-8.25,0-14.83-1.65-19.74-4.95-4.91-3.3-7.8-8.21-8.67-14.72h11.73c.87,3.56,2.67,6.15,5.41,7.75,2.74,1.61,6.62,2.41,11.66,2.41,6.95,0,11.95-1.52,14.99-4.56,3.04-3.04,4.56-8.08,4.56-15.12v-8.73c-2.17,3.48-5.13,6.21-8.86,8.21-3.74,2-7.82,3-12.25,3-8.95,0-16.07-3.39-21.37-10.16-5.3-6.6-7.95-15.25-7.95-25.93,0-10.08,2.69-18.29,8.08-24.63,5.39-6.25,12.38-9.38,20.98-9.38,4.78,0,9.08,1.04,12.9,3.13s6.78,5,8.86,8.73v-10.42ZM382.68,86.13c5.73,0,10.42-2.3,14.07-6.91,3.65-4.6,5.47-10.82,5.47-18.63s-1.74-13.55-5.21-17.72c-3.48-4.17-8.17-6.25-14.07-6.25s-10.62,2.06-13.88,6.19c-3.26,4.13-4.89,9.97-4.89,17.53s1.65,14.16,4.95,18.76c3.3,4.69,7.82,7.04,13.55,7.04Z"/>
        <path class="cls-1" d="M482.49,63.74h-50.43c.17,7.3,2.04,12.88,5.6,16.75,3.56,3.87,8.47,5.8,14.73,5.8,9.29,0,15.51-4.47,18.63-13.42l10.95,1.3c-2.09,6.95-5.76,12.34-11.01,16.16s-11.58,5.73-18.96,5.73c-9.99,0-17.77-3.3-23.33-9.9-5.73-6.52-8.6-15.03-8.6-25.54s2.82-18.98,8.47-25.41c5.56-6.34,13.29-9.51,23.2-9.51s16.96,3,22.48,8.99c5.52,6,8.27,14.2,8.27,24.63v4.43ZM451.87,35.46c-5.39,0-9.86,1.65-13.42,4.95-3.48,3.39-5.56,8.3-6.26,14.72h39.09c-.78-6.25-2.82-11.12-6.12-14.59-3.39-3.39-7.82-5.08-13.29-5.08Z"/>
      </g>
    </g>
  </g>
</svg>